<?xml version="1.0" encoding="utf-8"?>
<!-- Generator: Adobe Illustrator 26.0.0, SVG Export Plug-In . SVG Version: 6.00 Build 0)  -->
<svg version="1.1" id="Layer_1" xmlns="http://www.w3.org/2000/svg" xmlns:xlink="http://www.w3.org/1999/xlink" x="0px" y="0px"
	 viewBox="0 0 889.24 663.71" style="enable-background:new 0 0 889.24 663.71;" xml:space="preserve">
<g>
	<path d="M48.24,368.8c-0.24-0.21-0.37-0.52-0.37-0.92c0-0.64,0.26-1.22,0.78-1.74l3.02-3.11l0.41-0.18
		c0.21-0.15,0.41-0.26,0.6-0.32c0.18-0.06,0.35-0.09,0.5-0.09c0.43,0,0.85,0.18,1.28,0.53c0.43,0.35,0.93,0.75,1.51,1.19
		c0.58,0.44,1.28,0.84,2.08,1.19c0.81,0.35,1.84,0.53,3.09,0.53c1.1,0,2.11-0.2,3.05-0.6c0.93-0.4,1.74-0.95,2.43-1.65
		c0.69-0.7,1.22-1.53,1.6-2.47c0.38-0.95,0.57-1.97,0.57-3.07V291.4c0-0.55,0.15-0.99,0.46-1.33c0.31-0.34,0.79-0.53,1.47-0.6h4.95
		c1.34,0,2.02,0.67,2.02,2.02v66.6c0,2.32-0.44,4.48-1.31,6.48c-0.87,2-2.05,3.74-3.53,5.22c-1.48,1.48-3.23,2.64-5.24,3.48
		c-2.02,0.84-4.17,1.26-6.46,1.26c-2.56,0-4.99-0.47-7.28-1.4C51.58,372.2,49.7,370.76,48.24,368.8z"/>
	<path d="M89.92,328.5c0-4.12,0.8-8.01,2.41-11.66c1.6-3.65,3.77-6.85,6.51-9.6s5.92-4.92,9.56-6.5c3.64-1.59,7.5-2.38,11.6-2.38
		c2.72,0,5.35,0.36,7.91,1.08c2.55,0.72,4.94,1.74,7.17,3.07c2.23,1.33,4.26,2.91,6.1,4.74c1.83,1.83,3.41,3.87,4.74,6.11
		c1.33,2.24,2.35,4.64,3.07,7.19c0.72,2.55,1.08,5.2,1.08,7.95s-0.36,5.4-1.08,7.95c-0.72,2.55-1.74,4.94-3.07,7.17
		c-1.33,2.23-2.91,4.26-4.74,6.09c-1.83,1.83-3.87,3.41-6.1,4.72c-2.23,1.31-4.62,2.33-7.17,3.05c-2.55,0.72-5.19,1.08-7.91,1.08
		s-5.36-0.36-7.91-1.08c-2.55-0.72-4.94-1.73-7.17-3.05c-2.23-1.31-4.26-2.89-6.1-4.72s-3.41-3.86-4.72-6.09
		c-1.31-2.23-2.34-4.62-3.07-7.17C90.29,333.9,89.92,331.25,89.92,328.5z M99.03,328.5c0,2.9,0.55,5.65,1.65,8.24
		c1.1,2.6,2.59,4.87,4.49,6.82c1.89,1.95,4.11,3.51,6.64,4.67c2.53,1.16,5.25,1.74,8.15,1.74c2.87,0,5.56-0.58,8.08-1.74
		c2.52-1.16,4.72-2.72,6.6-4.67c1.88-1.95,3.36-4.23,4.44-6.82c1.08-2.6,1.63-5.34,1.63-8.24c0-2.84-0.54-5.57-1.63-8.2
		c-1.08-2.63-2.56-4.94-4.44-6.94c-1.88-2-4.08-3.6-6.6-4.79c-2.52-1.19-5.21-1.79-8.08-1.79c-2.9,0-5.62,0.6-8.15,1.79
		c-2.54,1.19-4.75,2.79-6.64,4.79c-1.89,2-3.39,4.31-4.49,6.94C99.58,322.93,99.03,325.66,99.03,328.5z"/>
	<path d="M157.66,346.13c-0.15-0.46-0.26-0.83-0.32-1.12c-0.06-0.29-0.05-0.53,0.02-0.73c0.08-0.2,0.2-0.37,0.37-0.53
		c0.17-0.15,0.4-0.3,0.71-0.46l4.35-2.02c0.76-0.31,1.36-0.27,1.79,0.11c0.43,0.38,0.76,0.85,1.01,1.4
		c0.46,1.19,1.18,2.24,2.18,3.14c0.99,0.9,2.07,1.64,3.23,2.22c1.16,0.58,2.34,1.02,3.53,1.31c1.19,0.29,2.21,0.44,3.07,0.44
		c1.16,0,2.44-0.17,3.85-0.5c1.4-0.34,2.73-0.85,3.96-1.56c1.24-0.7,2.27-1.61,3.11-2.73c0.84-1.11,1.26-2.44,1.26-3.96
		c0-1.65-0.4-2.98-1.19-3.98c-0.79-1.01-1.83-1.84-3.09-2.5c-1.27-0.66-2.69-1.18-4.26-1.58c-1.57-0.4-3.14-0.81-4.69-1.24
		c-2.75-0.73-5.2-1.63-7.35-2.68c-2.15-1.05-3.98-2.27-5.5-3.66c-1.51-1.39-2.66-2.98-3.46-4.76c-0.79-1.79-1.19-3.79-1.19-6.02
		c0-2.44,0.47-4.67,1.42-6.69c0.95-2.02,2.27-3.74,3.96-5.18c1.69-1.44,3.73-2.55,6.09-3.34c2.37-0.79,4.98-1.19,7.85-1.19
		c2.35,0,4.37,0.21,6.07,0.64c1.69,0.43,3.2,1.06,4.51,1.9c1.31,0.84,2.52,1.88,3.62,3.11s2.24,2.66,3.44,4.28
		c0.37,0.61,0.56,1.14,0.6,1.58c0.03,0.44-0.24,0.88-0.82,1.31l-3.57,2.7c-0.7,0.4-1.24,0.5-1.6,0.32
		c-0.37-0.18-0.76-0.53-1.19-1.05c-0.7-0.82-1.39-1.62-2.06-2.38c-0.67-0.76-1.44-1.44-2.29-2.04c-0.86-0.6-1.83-1.07-2.91-1.42
		c-1.08-0.35-2.37-0.53-3.87-0.53c-1.34,0-2.64,0.15-3.89,0.46c-1.25,0.31-2.37,0.79-3.37,1.47c-0.99,0.67-1.79,1.52-2.38,2.54
		c-0.6,1.02-0.89,2.24-0.89,3.64c0,1.07,0.37,2.05,1.1,2.95c0.73,0.9,1.66,1.72,2.79,2.45c1.13,0.73,2.37,1.36,3.71,1.88
		c1.34,0.52,2.64,0.93,3.89,1.24c2.9,0.67,5.55,1.53,7.95,2.56c2.4,1.04,4.45,2.27,6.16,3.71c1.71,1.44,3.04,3.11,3.98,5.02
		c0.95,1.91,1.42,4.07,1.42,6.48c0,2.66-0.53,5.05-1.58,7.17c-1.05,2.12-2.52,3.92-4.4,5.4c-1.88,1.48-4.12,2.62-6.71,3.41
		c-2.6,0.79-5.42,1.19-8.47,1.19c-1.92,0-3.9-0.25-5.93-0.73c-2.03-0.49-3.95-1.24-5.75-2.24c-1.8-1.01-3.44-2.27-4.9-3.8
		C159.54,350.01,158.42,348.21,157.66,346.13z"/>
	<path d="M250.92,344.16c0.27-0.24,0.57-0.47,0.89-0.69c0.32-0.21,0.65-0.32,0.98-0.32c0.46,0,0.9,0.27,1.33,0.82
		c0.61,0.82,1.11,1.5,1.49,2.02c0.38,0.52,0.69,0.93,0.94,1.24c0.24,0.34,0.43,0.58,0.55,0.73c0.15,0.18,0.27,0.37,0.37,0.57
		c0.09,0.2,0.14,0.42,0.14,0.66c0,0.34-0.13,0.69-0.39,1.08c-0.26,0.38-0.71,0.83-1.35,1.35c-1.31,1.04-2.68,1.98-4.1,2.82
		c-1.42,0.84-2.91,1.56-4.47,2.18c-1.56,0.61-3.2,1.08-4.92,1.42c-1.73,0.34-3.55,0.5-5.47,0.5c-2.72,0-5.34-0.36-7.88-1.08
		c-2.54-0.72-4.92-1.74-7.17-3.07c-2.24-1.33-4.29-2.91-6.14-4.74c-1.85-1.83-3.44-3.86-4.79-6.09c-1.34-2.23-2.38-4.62-3.11-7.17
		c-0.73-2.55-1.1-5.2-1.1-7.95s0.34-5.4,1.03-7.97s1.66-4.96,2.93-7.19c1.27-2.23,2.8-4.26,4.6-6.09c1.8-1.83,3.82-3.4,6.07-4.72
		c2.24-1.31,4.67-2.33,7.28-3.05c2.61-0.72,5.37-1.08,8.27-1.08c2.29,0,4.56,0.26,6.82,0.78c2.26,0.52,4.43,1.28,6.5,2.27
		c2.08,0.99,4.02,2.22,5.84,3.69c1.82,1.47,3.44,3.15,4.88,5.04c1.95,2.63,3.4,5.62,4.35,8.98c0.95,3.36,1.39,7.22,1.33,11.59
		c0,1.44-0.67,2.15-2.02,2.15h-48.28c0.52,2.44,1.43,4.7,2.73,6.78c1.3,2.08,2.85,3.89,4.67,5.43c1.82,1.54,3.84,2.75,6.07,3.62
		c2.23,0.87,4.53,1.31,6.92,1.31c1.68,0,3.2-0.16,4.56-0.48c1.36-0.32,2.6-0.75,3.71-1.28c1.11-0.53,2.15-1.15,3.09-1.83
		c0.95-0.69,1.86-1.4,2.75-2.13L250.92,344.16z M225.82,310.27c-2.32,1.56-4.32,3.52-6,5.89c-1.68,2.37-2.82,4.97-3.44,7.81h41.41
		c-0.34-2.53-1.12-4.84-2.36-6.92c-1.24-2.08-2.79-3.85-4.65-5.31c-1.86-1.47-3.96-2.6-6.3-3.41c-2.34-0.81-4.76-1.21-7.26-1.21
		c-1.99,0-3.95,0.26-5.89,0.78C229.4,308.41,227.56,309.2,225.82,310.27z"/>
	<path d="M287.83,306.88c2.63-2.69,5.68-4.8,9.17-6.34s7.26-2.31,11.32-2.31c2.75,0,5.39,0.36,7.93,1.08
		c2.54,0.72,4.92,1.73,7.15,3.05c2.23,1.31,4.26,2.89,6.1,4.72c1.83,1.83,3.42,3.86,4.74,6.09c1.33,2.23,2.35,4.62,3.07,7.17
		c0.72,2.55,1.08,5.2,1.08,7.95s-0.36,5.4-1.08,7.95c-0.72,2.55-1.74,4.95-3.07,7.19c-1.33,2.24-2.91,4.28-4.74,6.11
		c-1.83,1.83-3.87,3.41-6.1,4.74c-2.23,1.33-4.62,2.35-7.17,3.07c-2.55,0.72-5.19,1.08-7.91,1.08c-4.06,0-7.84-0.77-11.32-2.31
		s-6.54-3.66-9.17-6.34v23.36c0,0.55-0.19,1.02-0.57,1.42c-0.38,0.4-0.89,0.6-1.53,0.6h-4.76c-0.55,0-1.02-0.18-1.42-0.55
		c-0.4-0.37-0.6-0.86-0.6-1.47v-71.82c0-1.34,0.72-2.02,2.15-2.02h4.72c1.34,0,2.02,0.67,2.02,2.02V306.88z M287.38,328.27
		c0,2.84,0.55,5.57,1.65,8.2c1.1,2.63,2.59,4.94,4.49,6.94c1.89,2,4.11,3.6,6.64,4.79c2.53,1.19,5.25,1.79,8.15,1.79
		c2.87,0,5.56-0.6,8.08-1.79c2.52-1.19,4.72-2.79,6.6-4.79c1.88-2,3.36-4.31,4.44-6.94c1.08-2.63,1.63-5.36,1.63-8.2
		c0-2.87-0.54-5.61-1.63-8.22c-1.08-2.61-2.56-4.89-4.44-6.85c-1.88-1.95-4.08-3.51-6.6-4.67c-2.52-1.16-5.21-1.74-8.08-1.74
		c-2.9,0-5.62,0.58-8.15,1.74c-2.54,1.16-4.75,2.72-6.64,4.67c-1.89,1.95-3.39,4.24-4.49,6.85
		C287.93,322.66,287.38,325.4,287.38,328.27z"/>
	<path d="M359.2,305.18c0.85-1.07,1.77-2.02,2.75-2.86c0.98-0.84,2.07-1.55,3.28-2.13c1.21-0.58,2.57-1.02,4.1-1.33
		c1.53-0.31,3.3-0.46,5.31-0.46c3.42,0,6.54,0.65,9.37,1.95c2.82,1.3,5.25,3.07,7.28,5.31c2.03,2.24,3.6,4.88,4.72,7.9
		c1.11,3.02,1.67,6.26,1.67,9.71v31.1c0,1.04-0.27,1.82-0.8,2.34c-0.53,0.52-1.21,0.78-2.04,0.78h-3.39c-1.13,0-1.85-0.23-2.18-0.69
		c-0.32-0.46-0.48-1.22-0.48-2.29v-31.24c0-1.83-0.31-3.7-0.94-5.61c-0.63-1.91-1.56-3.64-2.79-5.2c-1.24-1.56-2.78-2.82-4.63-3.8
		c-1.85-0.98-3.98-1.47-6.39-1.47c-1.74,0-3.5,0.31-5.27,0.94c-1.77,0.63-3.37,1.55-4.79,2.77s-2.57,2.73-3.46,4.53
		c-0.89,1.8-1.33,3.86-1.33,6.18v33.85c0,1.34-0.67,2.02-2.02,2.02h-4.72c-1.44,0-2.15-0.67-2.15-2.02v-71.45
		c0-0.61,0.2-1.1,0.6-1.47c0.4-0.37,0.87-0.55,1.42-0.55h4.76c0.64,0,1.15,0.2,1.53,0.6c0.38,0.4,0.57,0.87,0.57,1.42V305.18z"/>
	<path d="M492.16,295.2c0.34,0.24,0.61,0.53,0.82,0.85c0.21,0.32,0.32,0.65,0.32,0.98c0,0.43-0.12,0.79-0.37,1.1l-2.43,4.03
		c-0.52,0.73-1.05,1.1-1.6,1.1c-0.21,0-0.45-0.05-0.71-0.16c-0.26-0.11-0.56-0.28-0.89-0.53c-2.2-1.56-4.51-2.75-6.94-3.57
		c-2.43-0.82-4.99-1.31-7.67-1.47c-3.94,0-7.57,0.71-10.9,2.13c-3.33,1.42-6.21,3.33-8.63,5.73c-2.43,2.4-4.33,5.18-5.7,8.34
		c-1.37,3.16-2.06,6.5-2.06,10.01c0,3.73,0.7,7.17,2.11,10.33c1.4,3.16,3.29,5.89,5.66,8.18c2.37,2.29,5.11,4.08,8.24,5.36
		c3.13,1.28,6.42,1.92,9.87,1.92c1.25,0,2.5-0.09,3.76-0.27c1.25-0.18,2.53-0.5,3.82-0.94c1.3-0.44,2.65-1.01,4.05-1.69
		c1.4-0.69,2.9-1.53,4.49-2.54c0.58-0.34,1.05-0.5,1.42-0.5c0.55,0,1.05,0.38,1.51,1.15l2.61,4.31c0.21,0.4,0.32,0.76,0.32,1.1
		c0,0.73-0.37,1.31-1.1,1.74c-2.87,2.08-6.03,3.7-9.48,4.88c-3.45,1.18-7.18,1.76-11.18,1.76c-3.24,0-6.34-0.41-9.32-1.24
		c-2.98-0.82-5.76-2-8.34-3.53c-2.58-1.53-4.93-3.35-7.05-5.47c-2.12-2.12-3.94-4.47-5.45-7.05c-1.51-2.58-2.68-5.36-3.5-8.34
		c-0.82-2.98-1.24-6.08-1.24-9.32c0-3.21,0.41-6.3,1.24-9.28c0.82-2.98,2-5.76,3.53-8.36c1.53-2.6,3.35-4.96,5.47-7.1
		c2.12-2.14,4.48-3.96,7.08-5.47c2.59-1.51,5.38-2.69,8.36-3.53c2.98-0.84,6.08-1.26,9.32-1.26c3.82,0,7.44,0.57,10.86,1.69
		C485.87,291.38,489.11,293.03,492.16,295.2z"/>
	<path d="M552.25,349.75c-2.63,2.69-5.68,4.8-9.16,6.34s-7.25,2.31-11.31,2.31c-2.72,0-5.35-0.36-7.9-1.08
		c-2.55-0.72-4.94-1.74-7.17-3.07c-2.23-1.33-4.26-2.91-6.09-4.74c-1.83-1.83-3.41-3.87-4.74-6.11c-1.33-2.24-2.35-4.64-3.07-7.19
		c-0.72-2.55-1.08-5.2-1.08-7.95s0.36-5.4,1.08-7.95c0.72-2.55,1.74-4.94,3.07-7.17c1.33-2.23,2.91-4.26,4.74-6.09
		c1.83-1.83,3.86-3.4,6.09-4.72c2.23-1.31,4.61-2.33,7.15-3.05c2.53-0.72,5.18-1.08,7.92-1.08c4.06,0,7.83,0.77,11.31,2.31
		s6.53,3.66,9.16,6.34v-5.59c0-1.34,0.67-2.02,2.02-2.02h4.72c1.44,0,2.15,0.67,2.15,2.02v54.19c0,0.61-0.2,1.1-0.6,1.47
		c-0.4,0.37-0.87,0.55-1.42,0.55h-4.76c-0.64,0-1.15-0.2-1.53-0.6c-0.38-0.4-0.57-0.87-0.57-1.42V349.75z M552.71,328.27
		c0-2.87-0.55-5.61-1.65-8.22s-2.59-4.89-4.48-6.85c-1.89-1.95-4.11-3.51-6.66-4.67c-2.55-1.16-5.25-1.74-8.12-1.74
		c-2.87,0-5.56,0.58-8.08,1.74c-2.52,1.16-4.71,2.72-6.59,4.67c-1.88,1.95-3.35,4.24-4.44,6.85c-1.08,2.61-1.62,5.35-1.62,8.22
		c0,2.84,0.54,5.57,1.62,8.2c1.08,2.63,2.56,4.94,4.44,6.94c1.88,2,4.07,3.6,6.59,4.79c2.52,1.19,5.21,1.79,8.08,1.79
		c2.87,0,5.57-0.6,8.12-1.79c2.55-1.19,4.77-2.79,6.66-4.79c1.89-2,3.39-4.31,4.48-6.94C552.16,333.84,552.71,331.11,552.71,328.27z
		"/>
	<path d="M583.13,307.02c0.85-1.07,1.82-2.11,2.89-3.14c1.07-1.02,2.27-1.94,3.6-2.75c1.33-0.81,2.8-1.47,4.42-1.97
		c1.62-0.5,3.44-0.76,5.45-0.76c3.76,0,7.07,0.65,9.94,1.95c2.87,1.3,5.27,3.07,7.21,5.31c1.94,2.24,3.4,4.88,4.4,7.9
		c0.99,3.02,1.49,6.26,1.49,9.71v31.1c0,1.04-0.27,1.82-0.8,2.34c-0.53,0.52-1.21,0.78-2.04,0.78h-3.39c-1.13,0-1.85-0.23-2.18-0.69
		c-0.32-0.46-0.48-1.22-0.48-2.29v-31.24c0-1.83-0.25-3.7-0.76-5.61c-0.5-1.91-1.33-3.64-2.47-5.2c-1.15-1.56-2.66-2.82-4.56-3.8
		c-1.89-0.98-4.21-1.47-6.96-1.47c-1.74,0-3.54,0.31-5.4,0.94c-1.86,0.63-3.56,1.55-5.08,2.77c-1.53,1.22-2.79,2.73-3.78,4.53
		c-0.99,1.8-1.49,3.86-1.49,6.18v33.85c0,1.34-0.67,2.02-2.02,2.02h-4.72c-1.44,0-2.15-0.67-2.15-2.02v-54.14
		c0-0.61,0.2-1.1,0.6-1.47c0.4-0.37,0.87-0.55,1.42-0.55h4.76c0.64,0,1.15,0.2,1.53,0.6c0.38,0.4,0.57,0.87,0.57,1.42V307.02z"/>
	<path d="M643.36,307.02c0.85-1.07,1.82-2.11,2.89-3.14c1.07-1.02,2.27-1.94,3.6-2.75c1.33-0.81,2.8-1.47,4.42-1.97
		c1.62-0.5,3.44-0.76,5.45-0.76c3.76,0,7.07,0.65,9.94,1.95c2.87,1.3,5.27,3.07,7.21,5.31c1.94,2.24,3.4,4.88,4.4,7.9
		c0.99,3.02,1.49,6.26,1.49,9.71v31.1c0,1.04-0.27,1.82-0.8,2.34c-0.53,0.52-1.21,0.78-2.04,0.78h-3.39c-1.13,0-1.85-0.23-2.18-0.69
		c-0.32-0.46-0.48-1.22-0.48-2.29v-31.24c0-1.83-0.25-3.7-0.76-5.61c-0.5-1.91-1.33-3.64-2.47-5.2c-1.14-1.56-2.66-2.82-4.56-3.8
		c-1.89-0.98-4.21-1.47-6.96-1.47c-1.74,0-3.54,0.31-5.4,0.94c-1.86,0.63-3.56,1.55-5.08,2.77c-1.53,1.22-2.79,2.73-3.78,4.53
		c-0.99,1.8-1.49,3.86-1.49,6.18v33.85c0,1.34-0.67,2.02-2.02,2.02h-4.72c-1.44,0-2.15-0.67-2.15-2.02v-54.14
		c0-0.61,0.2-1.1,0.6-1.47c0.4-0.37,0.87-0.55,1.42-0.55h4.76c0.64,0,1.15,0.2,1.53,0.6c0.38,0.4,0.57,0.87,0.57,1.42V307.02z"/>
	<path d="M742.52,349.75c-2.63,2.69-5.68,4.8-9.16,6.34c-3.48,1.54-7.25,2.31-11.31,2.31c-2.72,0-5.35-0.36-7.9-1.08
		c-2.55-0.72-4.94-1.74-7.17-3.07c-2.23-1.33-4.26-2.91-6.09-4.74s-3.41-3.87-4.74-6.11c-1.33-2.24-2.35-4.64-3.07-7.19
		c-0.72-2.55-1.08-5.2-1.08-7.95s0.36-5.4,1.08-7.95c0.72-2.55,1.74-4.94,3.07-7.17c1.33-2.23,2.91-4.26,4.74-6.09
		s3.86-3.4,6.09-4.72c2.23-1.31,4.61-2.33,7.15-3.05c2.53-0.72,5.18-1.08,7.92-1.08c4.06,0,7.83,0.77,11.31,2.31
		c3.48,1.54,6.53,3.66,9.16,6.34v-5.59c0-1.34,0.67-2.02,2.02-2.02h4.72c1.43,0,2.15,0.67,2.15,2.02v54.19c0,0.61-0.2,1.1-0.6,1.47
		c-0.4,0.37-0.87,0.55-1.42,0.55h-4.76c-0.64,0-1.15-0.2-1.54-0.6c-0.38-0.4-0.57-0.87-0.57-1.42V349.75z M742.98,328.27
		c0-2.87-0.55-5.61-1.65-8.22s-2.59-4.89-4.48-6.85c-1.89-1.95-4.11-3.51-6.66-4.67c-2.55-1.16-5.25-1.74-8.12-1.74
		s-5.56,0.58-8.08,1.74c-2.52,1.16-4.71,2.72-6.59,4.67c-1.88,1.95-3.36,4.24-4.44,6.85s-1.62,5.35-1.62,8.22
		c0,2.84,0.54,5.57,1.62,8.2c1.08,2.63,2.56,4.94,4.44,6.94c1.88,2,4.07,3.6,6.59,4.79c2.52,1.19,5.21,1.79,8.08,1.79
		s5.57-0.6,8.12-1.79s4.77-2.79,6.66-4.79c1.89-2,3.39-4.31,4.48-6.94C742.43,333.84,742.98,331.11,742.98,328.27z"/>
	<path d="M779.3,358.13c-1.41,0-2.82-0.17-4.24-0.5c-1.42-0.34-2.69-0.92-3.82-1.76c-1.13-0.84-2.05-1.98-2.77-3.44
		c-0.72-1.45-1.08-3.3-1.08-5.56v-39.71h-5.31c-0.76,0-1.33-0.11-1.7-0.34s-0.55-0.74-0.55-1.53v-4.26c0-0.79,0.18-1.29,0.55-1.49
		c0.37-0.2,0.93-0.3,1.7-0.3h5.31v-9.76c0-0.52,0.11-0.89,0.32-1.12c0.21-0.23,0.58-0.42,1.1-0.57c0.18-0.06,0.56-0.13,1.12-0.21
		c0.57-0.08,1.15-0.18,1.76-0.3c0.73-0.12,1.53-0.26,2.38-0.41c0.52-0.06,0.93-0.03,1.24,0.09c0.31,0.12,0.53,0.31,0.67,0.55
		c0.14,0.24,0.22,0.53,0.25,0.85c0.03,0.32,0.04,0.66,0.04,1.03v9.85h6.37c0.7,0,1.21,0.15,1.53,0.46c0.32,0.31,0.48,0.86,0.48,1.65
		v3.62c0,0.79-0.16,1.36-0.48,1.69s-0.83,0.5-1.53,0.5h-6.37v39.62c0,1.07,0.26,1.82,0.78,2.24c0.52,0.43,1.24,0.64,2.15,0.64
		c0.7,0,1.28,0.21,1.74,0.64c0.46,0.43,0.69,1.02,0.69,1.79v3.76c0,0.7-0.21,1.26-0.64,1.67S780,358.13,779.3,358.13z"/>
	<path d="M797.21,301.02c0.58,1.53,1.33,3.47,2.24,5.82c0.92,2.35,1.91,4.89,2.98,7.63c1.07,2.73,2.18,5.55,3.32,8.45
		c1.15,2.9,2.25,5.66,3.3,8.29c1.05,2.63,2.02,5.02,2.89,7.17s1.56,3.86,2.08,5.11c0.49-1.25,1.16-2.95,2.02-5.11
		c0.85-2.15,1.79-4.55,2.82-7.19c1.02-2.64,2.1-5.41,3.23-8.31c1.13-2.9,2.22-5.72,3.28-8.45c1.05-2.73,2.03-5.27,2.93-7.63
		c0.9-2.35,1.64-4.29,2.22-5.82c0.21-0.52,0.52-0.93,0.92-1.24c0.4-0.3,0.9-0.46,1.51-0.46h5.08c1.34,0,2.01,0.53,2.01,1.6
		c0,0.09-0.02,0.2-0.05,0.32c-0.03,0.12-0.08,0.26-0.14,0.41c-0.06,0.15-0.11,0.32-0.14,0.5l-10.76,26.52l-18.32,44.89v-0.09
		c-0.43,1.13-1.24,1.69-2.43,1.69h-4.54c-1.47,0-2.2-0.57-2.2-1.69c0-0.21,0.03-0.44,0.09-0.66c0.06-0.23,0.09-0.37,0.09-0.44
		l7.65-18.46l-21.25-51.71c-0.03-0.09-0.06-0.2-0.09-0.32c-0.06-0.24-0.09-0.55-0.09-0.92c0-1.07,0.7-1.6,2.11-1.6h4.81
		c0.61,0,1.11,0.15,1.51,0.46C796.69,300.08,796.99,300.5,797.21,301.02z"/>
</g>
</svg>
